HIERARCHY
ROOT hip
{
	OFFSET 0.000000 0.000000 0.000000
	CHANNELS 6 Xposition Yposition Zposition Xrotation Zrotation Yrotation 
	JOINT abdomen
	{
		OFFSET 0.000000 3.422050 0.000000
		CHANNELS 3 Xrotation Zrotation Yrotation 
		JOINT chest
		{
			OFFSET 0.000000 8.486693 -0.684411
			CHANNELS 3 Xrotation Zrotation Yrotation 
			JOINT neck
			{
				OFFSET 0.000000 10.266162 -0.273764
				CHANNELS 3 Xrotation Zrotation Yrotation 
				JOINT head
				{
					OFFSET 0.000000 3.148285 0.000000
					CHANNELS 3 Xrotation Zrotation Yrotation 
					End Site
					{
						OFFSET 0.000000 3.148289 0.000000
					}
				}
			}
			JOINT lCollar
			{
				OFFSET 3.422053 6.707223 -0.821293
				CHANNELS 3 Yrotation Zrotation Xrotation 
				JOINT lShldr
				{
					OFFSET 3.285171 0.000000 0.000000
					CHANNELS 3 Zrotation Yrotation Xrotation 
					JOINT lForeArm
					{
						OFFSET 10.129278 0.000000 0.000000
						CHANNELS 3 Yrotation Zrotation Xrotation 
						JOINT lHand
						{
							OFFSET 8.486692 0.000000 0.000000
							CHANNELS 3 Zrotation Yrotation Xrotation 
							End Site
							{
								OFFSET 4.106464 0.000000 0.000000
							}
						}
					}
				}
			}
			JOINT rCollar
			{
				OFFSET -3.558935 6.707223 -0.821293
				CHANNELS 3 Yrotation Zrotation Xrotation 
				JOINT rShldr
				{
					OFFSET -3.148289 0.000000 0.000000
					CHANNELS 3 Zrotation Yrotation Xrotation 
					JOINT rForeArm
					{
						OFFSET -10.266159 0.000000 0.000000
						CHANNELS 3 Yrotation Zrotation Xrotation 
						JOINT rHand
						{
							OFFSET -8.349810 0.000000 0.000000
							CHANNELS 3 Zrotation Yrotation Xrotation 
							End Site
							{
								OFFSET -4.106464 0.000000 0.000000
							}
						}
					}
				}
			}
		}
	}
	JOINT lThigh
	{
		OFFSET 5.338403 -1.642589 1.368821
		CHANNELS 3 Xrotation Zrotation Yrotation 
		JOINT lShin
		{
			OFFSET -2.053232 -20.121670 0.000000
			CHANNELS 3 Xrotation Zrotation Yrotation 
			JOINT lFoot
			{
				OFFSET 0.000000 -19.300380 -1.231939
				CHANNELS 3 Xrotation Yrotation Zrotation 
				End Site
				{
					OFFSET 0.000000 -2.463878 4.653993
				}
			}
		}
	}
	JOINT rThigh
	{
		OFFSET -5.338403 -1.642589 1.368821
		CHANNELS 3 Xrotation Zrotation Yrotation 
		JOINT rShin
		{
			OFFSET 2.053232 -20.121670 0.000000
			CHANNELS 3 Xrotation Zrotation Yrotation 
			JOINT rFoot
			{
				OFFSET 0.000000 -19.300380 -1.231939
				CHANNELS 3 Xrotation Yrotation Zrotation 
				End Site
				{
					OFFSET 0.000000 -2.463878 4.653993
				}
			}
		}
	}
}
MOTION
Frames: 10
Frame Time: 0.033325
0.000000 43.528500 0.000000 0.000000 0.000000 0.000000 0.000000 0.000000 0.000000 0.000000 0.000000 0.000000 0.000000 0.000000 0.000000 0.000000 0.000000 0.000000 0.000000 0.000000 0.000000 0.000000 0.000000 0.000000 0.000000 0.000000 0.000000 0.000000 0.000000 0.000000 0.000000 0.000000 0.000000 0.000000 0.000000 0.000000 0.000000 0.000000 0.000000 0.000000 0.000000 0.000000 0.000000 0.000000 0.000000 0.000000 0.000000 0.000000 0.000000 0.000000 0.000000 0.000000 0.000000 0.000000 0.000000 0.000000 0.000000 0.000000 0.000000 0.000000 
19.995884 5.101677 0.543667 -72.001060 0.000000 0.000000 -7.462860 0.040131 -0.002617 16.470852 -0.066243 -0.555518 17.998348 0.000000 0.000000 8.998567 0.000000 0.000000 -21.346340 -21.126133 19.430946 -42.117264 -5.658024 8.213036 -8.572575 -1.726400 10.483118 -14.837095 -15.650493 39.097733 21.234531 22.220669 19.362951 41.353779 5.563411 8.152289 8.423412 1.428508 10.498867 15.135770 15.895583 39.185471 -160.106781 50.000477 1.951691 118.997414 4.999606 -20.003778 57.033455 5.742591 3.228957 -146.017365 -46.002598 0.007304 112.994743 -5.000115 -0.002289 57.060715 -5.750345 -3.247739 
19.995884 5.116695 0.611752 -72.887550 0.000000 0.000000 -7.462860 0.040131 -0.002617 17.577236 -0.066218 -0.555427 17.616663 0.000000 0.000000 8.424145 0.000000 0.000000 -21.571154 -19.633787 19.166857 -42.982502 -5.619045 8.339281 -9.638559 -2.320125 10.451567 -14.891829 -14.902969 38.842117 21.473743 20.687382 19.085518 42.277813 5.539365 8.283616 9.470894 2.023799 10.471578 15.175622 15.150152 38.928047 -159.321503 49.385155 1.933861 119.274200 5.022466 -19.449268 57.033455 5.742591 3.228957 -146.017395 -46.224781 0.007468 113.909233 -5.586864 -1.451862 57.060715 -5.750345 -3.247739 
19.995884 5.131714 0.679837 -73.774887 0.000000 0.000000 -7.462860 0.040131 -0.002617 18.685280 -0.066195 -0.555335 17.234701 0.000000 0.000000 7.848782 0.000000 0.000000 -21.787327 -18.136234 18.910551 -43.848377 -5.578137 8.465029 -10.707328 -2.914247 10.408859 -14.949867 -14.155113 38.586430 21.703453 19.148415 18.816746 43.202705 5.513186 8.414663 10.520972 2.619553 10.433312 15.218829 14.404329 38.670765 -158.544617 48.769287 1.903413 119.551346 5.042666 -18.894396 57.033455 5.742591 3.228957 -146.017410 -46.446976 0.007632 114.842857 -6.152388 -2.917701 57.060707 -5.750345 -3.247739 
19.995884 5.146732 0.747922 -74.662964 0.000000 0.000000 -7.462860 0.040131 -0.002617 19.794794 -0.066174 -0.555242 16.852484 0.000000 0.000000 7.272513 0.000000 0.000000 -21.995260 -16.634045 18.661631 -44.714802 -5.535308 8.590231 -11.778880 -3.508419 10.354936 -15.011189 -13.407001 38.330608 21.924128 17.604391 18.556160 44.128315 5.484876 8.545380 11.573648 3.215435 10.384007 15.265376 13.658197 38.413567 -157.775787 48.153061 1.860760 119.828789 5.060198 -18.339199 57.033455 5.742591 3.228957 -146.017426 -46.669182 0.007794 115.794914 -6.695638 -4.399134 57.060719 -5.750346 -3.247740 
19.995884 5.161751 0.816007 -75.551689 0.000000 0.000000 -7.462860 0.040131 -0.002617 20.905554 -0.066154 -0.555149 16.470003 0.000000 0.000000 6.695364 0.000000 0.000000 -22.195309 -15.127787 18.419695 -45.581650 -5.490568 8.714844 -12.853209 -4.102297 10.289749 -15.075787 -12.658728 38.074585 22.136171 16.055935 18.303320 45.054554 5.454444 8.675717 12.628926 3.811110 10.323622 15.315245 12.911844 38.156391 -157.014633 47.536686 1.806315 120.106461 5.075053 -17.783728 57.033455 5.742591 3.228957 -146.017426 -46.891373 0.007957 116.764656 -7.215599 -5.895401 57.060715 -5.750346 -3.247740 
19.995884 5.176769 0.884092 -76.440941 0.000000 0.000000 -7.462860 0.040131 -0.002617 22.017366 -0.066137 -0.555056 16.087280 0.000000 0.000000 6.117360 0.000000 0.000000 -22.387794 -13.618031 18.184374 -46.448818 -5.443927 8.838822 -13.930308 -4.695529 10.213254 -15.143653 -11.910380 37.818310 22.339964 14.503659 18.057796 45.981270 5.421898 8.805622 13.686809 4.406238 10.252115 15.368426 12.165361 37.899185 -156.260834 46.920368 1.740458 120.384369 5.087231 -17.228033 57.033455 5.742591 3.228957 -146.017456 -47.113605 0.008124 117.751259 -7.711308 -7.405672 57.060715 -5.750345 -3.247739 
19.995884 5.191788 0.952177 -77.330635 0.000000 0.000000 -7.462860 0.040131 -0.002617 23.130013 -0.066121 -0.554962 15.704327 0.000000 0.000000 5.538528 0.000000 0.000000 -22.573051 -12.105361 17.955334 -47.316223 -5.395403 8.962125 -15.010171 -5.287765 10.125419 -15.214779 -11.162050 37.561714 22.535894 12.948213 17.819210 46.908340 5.387245 8.935040 14.747285 5.000478 10.169449 15.424902 11.418827 37.641857 -155.514084 46.304310 1.663565 120.662422 5.096724 -16.672150 57.033455 5.742591 3.228957 -146.017471 -47.335815 0.008290 118.753822 -8.181845 -8.929031 57.060711 -5.750345 -3.247739 
19.995884 5.206806 1.020262 -78.220657 0.000000 0.000000 -7.462860 0.040131 -0.002617 24.243292 -0.066107 -0.554867 15.321140 0.000000 0.000000 4.958897 0.000000 0.000000 -22.751371 -10.590360 17.732246 -48.183743 -5.345010 9.084708 -16.092779 -5.878652 10.026219 -15.289157 -10.413818 37.304733 22.724274 11.390215 17.587177 47.835644 5.350499 9.063921 15.810362 5.593489 10.075603 15.484659 10.672331 37.384354 -154.774063 45.688698 1.575989 120.940628 5.103530 -16.116125 57.033455 5.742591 3.228957 -146.017487 -47.558056 0.008454 119.771301 -8.626346 -10.464479 57.060707 -5.750345 -3.247739 
19.995884 5.221825 1.088346 -79.110878 0.000000 0.000000 -7.462860 0.040131 -0.002617 25.356991 -0.066094 -0.554773 14.937735 0.000000 0.000000 4.378495 0.000000 0.000000 -22.923016 -9.073603 17.514795 -49.051289 -5.292761 9.206529 -17.178123 -6.467836 9.915637 -15.366780 -9.665776 37.047310 22.905424 9.830303 17.361351 48.763046 5.311671 9.192214 16.876022 6.184927 9.970554 15.547695 9.925967 37.126629 -154.040466 45.073711 1.478080 121.218918 5.107648 -15.560015 57.033455 5.742592 3.228957 -146.017517 -47.780296 0.008627 120.802673 -9.044019 -12.010958 57.060715 -5.750345 -3.247739 
